<?xml version="1.0" encoding="UTF-8" standalone="no"?>
<!-- Created with Inkscape (http://www.inkscape.org/) -->

<svg
   width="132.29167mm"
   height="132.26628mm"
   viewBox="0 0 132.29167 132.26628"
   version="1.1"
   id="svg5"
   xml:space="preserve"
   inkscape:version="1.2.2 (b0a8486541, 2022-12-01)"
   sodipodi:docname="docker-icon.svg"
   xmlns:inkscape="http://www.inkscape.org/namespaces/inkscape"
   xmlns:sodipodi="http://sodipodi.sourceforge.net/DTD/sodipodi-0.dtd"
   xmlns="http://www.w3.org/2000/svg"
   xmlns:svg="http://www.w3.org/2000/svg"><sodipodi:namedview
     id="namedview7"
     pagecolor="#ffffff"
     bordercolor="#000000"
     borderopacity="0.25"
     inkscape:showpageshadow="2"
     inkscape:pageopacity="0.0"
     inkscape:pagecheckerboard="0"
     inkscape:deskcolor="#d1d1d1"
     inkscape:document-units="mm"
     showgrid="false"
     inkscape:zoom="0.72248176"
     inkscape:cx="166.09416"
     inkscape:cy="407.62275"
     inkscape:window-width="1872"
     inkscape:window-height="1011"
     inkscape:window-x="0"
     inkscape:window-y="0"
     inkscape:window-maximized="1"
     inkscape:current-layer="layer1" /><defs
     id="defs2" /><g
     inkscape:label="Capa 1"
     inkscape:groupmode="layer"
     id="layer1"
     transform="translate(-28.976122,-26.756248)"><g
       id="g371"
       transform="matrix(0.92565198,0,0,0.92565198,2.1543174,1.9892741)"><path
         style="fill:#ffffff;stroke:none;stroke-width:0.165688"
         d="m 60.787681,27.022632 c -4.85566,0.63755 -9.22237,0.92884 -13.75212,3.12058 -2.59064,1.2535 -4.94217,2.84593 -7.124599,4.71726 -5.22403,4.47934 -8.97664,10.98974 -10.20235,17.77351 -1.19603,6.619406 -0.56738,13.672756 -0.56738,20.379646 v 40.759302 16.9002 c 0,9.55855 0.3322,18.3904 6.40456,26.34443 5.4107,7.08731 13.5622,11.55443 22.42519,12.39845 5.25779,0.50071 10.78813,0.0282 16.07176,0.0282 h 32.309198 24.52185 c 4.46381,0 9.16604,0.41787 13.58644,-0.23643 12.50035,-1.85041 22.75678,-10.92714 26.10832,-23.12561 2.11352,-7.6924 1.06455,-16.44886 1.06455,-24.35616 V 77.487218 c 0,-12.78998 1.83334,-26.434396 -6.03553,-37.445536 -4.9564,-6.93553 -12.86735,-11.60209 -21.30303,-12.71134 -5.55238,-0.7301 -11.30408,-0.37803 -16.9002,-0.37803 H 99.558722 73.877052 c -4.26581,0 -8.86134,-0.48482 -13.08937,0.0703"
         id="path367"
         sodipodi:nodetypes="csssscsssscscsssssscsc" /><path
         style="fill:#1d63ed;stroke:none;stroke-width:0.165688"
         d="m 60.787683,27.022633 c -4.85566,0.63755 -9.22237,0.92884 -13.75212,3.12058 -2.59064,1.2535 -4.94217,2.84593 -7.1246,4.71726 -5.22403,4.47934 -8.97664,10.98974 -10.20235,17.77351 -1.19603,6.619406 -0.56738,13.672756 -0.56738,20.379646 v 40.759301 16.9002 c 0,9.55855 0.3322,18.3904 6.40456,26.34443 5.4107,7.08731 13.5622,11.55443 22.42519,12.39845 5.25779,0.50071 10.78813,0.0282 16.07176,0.0282 h 32.309197 24.52185 c 4.46381,0 9.16604,0.41787 13.58644,-0.23643 12.50035,-1.85041 22.75678,-10.92714 26.10832,-23.12561 2.11352,-7.6924 1.06455,-16.44886 1.06455,-24.35616 V 77.487219 c 0,-12.78998 1.83334,-26.434396 -6.03553,-37.445536 -4.9564,-6.93553 -12.86735,-11.60209 -21.30303,-12.71134 -5.55238,-0.7301 -11.30408,-0.37803 -16.9002,-0.37803 H 99.558723 73.877053 c -4.26581,0 -8.86134,-0.48482 -13.08937,0.0703 m 47.386827,34.061446 v 10.27267 H 97.901843 v -10.27267 h 10.272667 m -36.948467,23.36204 v -7.45597 c 0,-0.68346 -0.27538,-2.15395 0.17033,-2.71679 0.36998,-0.46707 1.46153,-0.2656 1.98362,-0.2656 h 5.96477 c 0.54942,0 1.7616,-0.22384 2.14931,0.2656 0.32143,0.40577 0.17033,1.24051 0.17033,1.72266 v 4.14221 c 0,0.84468 0.4394,3.57919 -0.2656,4.13756 -0.56284,0.4457 -2.03333,0.17033 -2.71679,0.17033 h -7.45597 m 23.69341,0 h -10.27267 v -7.12459 c 0,-0.81204 -0.2641,-2.1899 0.0999,-2.9297 0.31183,-0.63376 1.64463,-0.38407 2.21973,-0.38407 h 5.79909 c 0.52208,0 1.61363,-0.20147 1.98362,0.2656 0.4457,0.56284 0.17032,2.03333 0.17032,2.71679 v 7.45597 M 108.1745,74.007739 v 10.43836 H 97.901833 v -7.62166 l 0.2656,-2.64637 2.716787,-0.17033 h 7.29028 m 44.90151,19.55121 c -0.89406,4.95424 -6.0458,8.292531 -10.60405,9.204151 -1.34721,0.2694 -2.76981,0.4051 -4.14221,0.40577 -0.61139,3.3e-4 -1.40636,-0.13007 -1.85322,0.38406 -0.72853,0.83822 -1.02809,2.26264 -1.50279,3.26108 -1.1522,2.42286 -2.32411,4.80131 -3.67314,7.12459 -4.03534,6.94913 -9.58573,13.15283 -16.49857,17.3227 -14.56168,8.78363 -37.300387,8.38051 -48.995827,-5.06177 -6.01365,-6.91185 -8.16661,-16.23678 -8.16661,-25.18461 h 40.59362 c 8.319197,0 17.128347,0.8127 25.350287,-0.56914 2.02388,-0.34016 3.70595,-1.360961 5.6334,-1.916181 -3.62476,-6.53558 -3.2054,-13.16045 0.99413,-19.38552 3.15205,1.19478 6.0168,4.76469 7.31132,7.78734 0.40064,0.93548 0.55672,3.77885 1.23869,4.34484 0.35722,0.29642 0.98899,0.0452 1.39128,-0.0147 1.27564,-0.18972 2.52377,-0.18789 3.81083,-0.18789 3.52767,0 6.07181,0.75471 9.11286,2.48532 m -84.832367,-6.46188 v 10.27267 h -10.27267 v -10.27267 h 10.27267 m 2.98239,10.27267 v -10.27267 h 7.45597 c 0.68346,0 2.15395,-0.27537 2.71679,0.17033 0.46707,0.36998 0.2656,1.46153 0.2656,1.98362 v 5.79908 c 0,0.57511 0.24969,1.9079 -0.38407,2.21973 -0.7398,0.36402 -2.11766,0.0999 -2.9297,0.0999 h -7.12459 m 23.69341,-10.27266 v 10.27267 h -10.27267 v -10.27267 h 10.27267 m 13.255057,0 v 10.27267 H 97.901833 V 87.097109 H 108.1745 m 13.42074,0 v 10.27267 h -10.27267 v -10.27267 z"
         id="path318" /></g></g></svg>
